<?xml version="1.0" encoding="UTF-8" standalone="no"?>
<!-- Created with sK1/UniConvertor (http://sk1project.org/) -->

<svg
   width="702.92645"
   height="696.46857"
   viewBox="0 0 562.34118 557.17483"
   id="svg2"
   version="1.1"
   style="fill-rule:evenodd"
   xml:space="preserve"
   xmlns="http://www.w3.org/2000/svg"
   xmlns:svg="http://www.w3.org/2000/svg"
   xmlns:rdf="http://www.w3.org/1999/02/22-rdf-syntax-ns#"
   xmlns:cc="http://creativecommons.org/ns#"
   xmlns:dc="http://purl.org/dc/elements/1.1/"><metadata
     id="metadata90"><rdf:RDF><cc:Work
         rdf:about=""><dc:format>image/svg+xml</dc:format><dc:type
           rdf:resource="http://purl.org/dc/dcmitype/StillImage" /></cc:Work></rdf:RDF></metadata><defs
     id="defs88" /><g
     id="g3067"
     transform="translate(-16.467301,-142.35741)"><g
       id="g4"><g
         id="g6"><path
           id="path8"
           d="m 273.638,396.945 48,0 0,48 -48,0 0,-48 z"
           style="fill:none;stroke:none" /><g
           id="g10"><path
             id="path12"
             d="M 531.482,265.967 C 617.634,393.578 582.854,567.278 454.065,652.638 325.262,737.999 149.937,703.547 63.7969,575.932 -22.3618,448.307 12.4239,274.604 141.216,189.248 270.024,103.886 445.339,138.352 531.482,265.967 z"
             style="fill:#ffffff;stroke:none" /><path
             id="path14"
             d="M 526.576,270.681 C 610.698,395.282 576.735,564.887 450.984,648.234 325.219,731.58 154.029,697.938 69.919,573.332 -14.1989,448.717 19.7665,279.116 145.516,195.774 c 125.766,-83.35 296.944,-49.697 381.06,74.907 z"
             style="fill:#004b8b;stroke:none" /><path
             id="path16"
             d="M 442.259,635.158 C 322.883,714.285 161.285,682.532 81.4346,564.238 1.57884,445.938 33.6341,285.849 153.01,206.722 c 119.393,-79.119 280.976,-47.359 360.834,70.931 79.858,118.293 47.804,278.393 -71.585,357.505 z M 519.869,273.66 C 438,152.388 271.387,119.637 148.991,200.756 26.5861,281.872 -6.46826,446.951 75.4171,568.234 157.276,689.503 323.894,722.258 446.292,641.132 568.684,560.011 601.75,394.94 519.869,273.66 z"
             style="fill:#ffffff;stroke:none" /><path
             id="path18"
             d="M 387.324,553.792 C 313.289,602.86 213.081,583.161 163.556,509.801 114.04,436.448 133.915,337.17 207.959,288.103 c 74.039,-49.071 174.242,-29.376 223.76,43.985 49.52,73.356 29.641,172.63 -44.395,221.704 z M 437.907,327.987 C 386.091,251.244 281.27,230.648 203.825,281.972 c -77.458,51.332 -98.257,155.182 -46.445,231.933 51.808,76.734 156.634,97.348 234.078,46.006 77.45,-51.327 98.247,-155.185 46.449,-231.924 z"
             style="fill:#ffffff;stroke:none" /><path
             id="path20"
             d="m 86.9892,406.588 c 5.688,0 10.2951,4.568 10.2951,10.2 0,5.632 -4.6071,10.2 -10.2951,10.2 -5.6792,0 -10.2935,-4.568 -10.2935,-10.2 0,-5.632 4.6143,-10.2 10.2935,-10.2 z"
             style="fill:#ffffff;stroke:none" /><path
             id="path22"
             d="m 507.168,406.588 c 5.68,0 10.296,4.568 10.296,10.2 0,5.632 -4.616,10.2 -10.296,10.2 -5.688,0 -10.295,-4.568 -10.295,-10.2 0,-5.632 4.607,-10.2 10.295,-10.2 z"
             style="fill:#ffffff;stroke:none" /><path
             id="path24"
             d="m 318.826,424.28333 -0.487,0.27615 0.193,0.53636 -0.689,-0.0389 -0.187,0.68093 -0.712,-0.30608 -0.655,0.47455 -0.531,-0.43965 -0.679,0.30905 -0.197,-0.61213 -0.717,0.0309 0.074,-0.57326 -0.682,-0.13059 0.155,-0.61314 -0.643,-0.40176 0.561,-0.37486 -0.271,-0.57425 0.586,-0.33996 v -0.60516 l 0.677,-0.0648 0.187,-0.57822 0.717,0.23327 0.457,-0.50445 0.495,0.50445 0.686,-0.23327 0.19,0.57822 0.643,0.027 0.035,0.61313 0.725,0.19739 -0.151,0.61712 0.573,0.40278 -0.538,0.40775 z m 17.336,0.32998 c 0.159,1.93211 -4.661,2.08962 -4.902,-1.16045 0.113,-3.32186 4.855,-3.36075 4.855,-1.50441 -1.468,-0.2323 -2.243,0.38781 -2.243,1.50441 0.078,0.8494 0.809,1.43262 2.29,1.16045 z m -89.082,-5.56602 h 50.231 l 0.124,-0.16448 -0.124,-46.30274 h 51.263 l 0.043,46.3795 -49.524,0.0469 0.016,0.0408 c 2.731,9.50401 5.324,17.43082 7.862,24.13935 l 16.195,0.004 v -2.56419 c -0.802,1.1146 -2.003,0.90325 -2.638,-0.2981 -0.985,0.95311 -2.004,0.70386 -2.434,-0.49449 -0.937,0.95012 -2.22,0.79259 -2.604,-0.65799 -0.519,1.60811 -1.29,2.60207 -3.332,2.51832 -1.883,0.53936 -2.472,0.49449 -2.952,0.0469 -1.538,0.53139 -1.952,0.53139 -2.522,0.24427 l 3.634,-11.86878 c 0.643,-2.18134 2.092,-3.25706 5.045,-2.75959 2.607,0.45561 2.519,3.01282 1.918,4.73853 1.968,0.329 3.247,0.41275 5.373,0.49051 0.09,0 0.175,-0.005 0.245,-0.0159 -0.101,-0.0418 -0.21,-0.0619 -0.321,-0.0619 0.894,-0.73774 1.061,-1.10962 1.491,-1.93609 h -0.938 c 0.984,-0.79157 1.182,-1.09466 1.573,-1.88325 -0.759,0.50148 -3.076,1.89024 -3.952,0.4556 0.054,-0.21433 2.522,-0.41273 2.701,-0.94908 -0.089,-0.0837 -0.054,-0.16451 -0.089,-0.29113 -1.155,-0.36786 -1.969,-0.1645 -2.864,0.16849 -0.337,-1.35785 0.465,-1.93709 3.096,-1.90219 v -0.008 c 5.553,-1.64896 4.27,0.28813 6.018,3.00883 -0.376,0 -0.768,-0.0848 -1.101,-0.0848 0.465,0.82748 0.589,1.11461 1.232,1.81546 -0.472,-0.12362 -0.81,-0.20738 -1.15,-0.20738 0.34,0.82648 0.507,1.07573 1.019,1.72973 -0.101,0 -0.206,0.0349 -0.303,0.0837 0.07,0.008 0.147,0.023 0.221,0.0428 1.531,-0.33301 2.469,-0.49749 3.453,-0.86537 -0.772,-1.68784 -0.896,-3.75053 1.926,-4.48929 2.045,-0.45561 3.618,0.45162 4.308,1.76859 l 6.572,12.8129 c -0.25,0.49451 -0.847,0.49451 -2.897,-0.0368 -0.69,0.36689 -1.073,0.40476 -2.692,-0.21135 -1.456,0.24824 -2.305,0 -3.498,-2.54524 -0.213,1.27112 -1.027,1.55328 -2.271,0.56728 -0.294,1.35785 -1.36,1.6021 -2.298,0.40874 -0.259,1.28608 -1.196,1.56922 -2.309,0.66596 l 0.253,2.57615 18.448,0.023 v 3.70869 h 0.055 v 9.10122 c -0.171,10.56676 -16.26,15.19465 -24.819,18.46666 -9.241,-9.32654 -17.238,-23.53817 -26.386,-55.22048 -3.034,10.50891 -5.886,19.08274 -8.687,26.20602 l -2.255,0.21434 v -2.26608 h -1.449 c 0.895,-1.94009 0.677,-2.7556 1.019,-4.3288 0.213,-1.02587 1.197,-0.90324 1.282,-0.24824 0.767,-0.93515 -0.387,-2.0976 -1.538,-1.06475 -0.387,-0.78859 -0.465,-0.98699 -0.128,-1.72972 0.466,-0.40975 1.449,-0.36689 1.492,0.44862 1.03,-0.65897 -0.426,-3.37669 -2.341,-1.15248 -0.348,-0.49449 -0.519,-0.86535 -0.519,-1.32097 0.644,-0.73475 1.245,-0.61212 1.322,0.0848 1.073,-0.8195 -0.678,-2.54923 -1.957,-1.14849 -1.155,-2.0667 -2.05,-7.04949 0.938,-7.70847 1.701,-0.37187 2.685,0.28712 3.498,1.44358 0.132,0.45163 0.597,1.31998 -0.294,1.64897 0.171,0.329 0.426,0.49351 0.802,0.61612 -1.275,0.86538 0.647,2.96695 0.647,3.9998 0.426,-0.58123 0.589,-0.95309 0.426,-1.52735 0.252,0.24525 0.217,0.40975 0.341,0.74374 0.554,-0.74374 0.047,-1.28309 -0.124,-1.77757 0.295,0.24922 0.376,0.41771 0.601,0.70484 0.295,-1.48546 0.124,-1.69184 -0.306,-2.18931 0.473,-0.0768 0.508,-0.37187 0.771,-0.73476 -1.415,-0.12263 -2.139,-3.13843 -4.018,-3.83131 -5.25,-1.56522 -6.612,3.29196 -5.161,7.57887 0.6,1.80947 1.922,4.6538 2.434,6.42139 0.34,1.15248 0.294,2.68381 -0.725,5.07154 h -0.043 -1.62 v 2.26608 h -2.311 c -3.542,-3.08857 -4.649,-6.13528 -6.835,-8.48512 0.737,0.45063 1.721,1.1475 3.034,1.23523 -0.511,-0.7846 -1.066,-1.11659 -1.066,-2.06668 1.109,1.20332 2.774,1.16445 3.716,0.91521 -1.201,-0.9491 -2.003,-1.56922 -2.049,-3.71268 1.026,0.82349 1.403,1.2781 2.049,1.98196 1.062,-1.93609 0.469,-2.96595 -0.511,-4.28991 0.891,0.61611 0.725,0.24924 1.662,0.45163 -0.348,-0.86139 -0.124,-0.94513 -0.984,-1.72574 0.817,0.33297 0.511,0.0389 1.198,0.0389 -0.303,-0.61713 -0.09,-0.98401 -1.151,-1.60811 0.724,0 0.724,-0.36388 1.061,-0.69687 -2.476,-0.74272 -0.984,-1.65294 -3.708,-2.55719 0.81,-1.23622 -1.03,-2.05473 -1.666,-0.8185 -0.473,-0.21036 -0.473,-0.33299 -0.938,-0.4586 0.214,-1.72674 -2.096,-1.56523 -1.79,0 -1.29,0.37386 -1.716,0.4586 -2.646,0.95209 -0.093,0.28314 -0.128,0.53637 -0.093,0.94512 -1.151,0.57824 -1.573,0.78859 -2.859,1.19436 -0.554,0 -0.636,0.45561 -0.043,0.45561 0,0.28711 0.166,1.40073 0.302,1.89422 0.043,0.37185 0.26,0.28712 0.294,0.0349 0,-0.11865 0.942,-0.82349 1.279,-0.86136 0.047,-0.40877 0.217,-0.40877 0.26,0 0.298,0.0848 0.554,0.40974 0.476,1.48545 -3.971,-0.37186 -4.525,-0.37186 -4.832,-1.07571 -0.17,-0.89926 -0.813,-0.73476 -0.34,0.24824 0.17,0.45561 0.34,0.86636 4.994,1.19834 -0.376,0.37087 -0.853,0.4556 -1.79,0.53237 0,-0.41372 -0.217,-0.41372 -0.263,0 -0.035,0 -0.167,0.17246 -0.167,0.45461 -0.213,0.21135 -0.298,0.4596 -0.298,0.49449 -0.938,-0.1645 -1.574,-0.65899 -3.112,-0.49449 -1.705,-2.21922 -4.014,-0.98698 -6.276,-4.77244 l -0.062,0.024 0.007,-0.008 0.67,-0.31804 0.833,1.45058 0.857,-0.40976 -0.848,-1.45056 c 3.068,-1.27013 5.032,-1.88625 8.748,-2.00887 1.143,-1.16046 1.79,-1.64598 2.898,-2.8822 -5.079,-0.33299 -7.989,1.27409 -12.123,3.94993 l -0.05,0.027 -0.93,-1.58817 -0.815,0.40875 0.508,0.8843 c -0.43,-0.51243 -1.205,-0.93314 -2.003,-0.51642 -1.019,0 -1.491,0.12562 -1.833,0.86438 -1.189,0.12262 -1.232,2.27005 -0.294,2.63794 l 0.05,-0.0429 0.012,0.0429 -0.492,0.24823 0.465,0.78462 1.154,-0.55531 c 0.008,0.52042 0.132,0.76267 0.554,1.09166 0.218,-0.21135 0.473,-0.37186 0.772,-0.6201 0.089,0.77663 0.166,1.32396 0.561,2.14246 0.248,-0.25221 0.465,-0.40876 0.678,-0.61911 0.035,0.99097 0.09,1.31998 0.341,2.10058 0.295,-0.28612 0.636,-0.57824 0.895,-0.7806 -0.127,1.02586 -0.127,1.68784 0.427,2.18532 0.216,-0.37088 0.251,-0.62011 0.341,-1.02986 0.465,0.45162 0.984,1.02986 1.836,1.39673 0.089,0.16151 0.345,0.45662 0.473,0.61712 -0.519,0.49349 -0.86,0.6231 -1.581,0.70385 0.767,0.57825 1.197,0.57825 2.17,0.28713 -0.418,0.45561 -0.632,0.90424 -1.198,1.15249 0.733,0.12961 1.12,0.12961 1.806,0.12961 -1.751,0.0349 -2.736,0.32599 -4.533,1.68385 0.178,-0.74174 0.597,-1.64897 -0.125,-1.44558 -0.387,0.12561 -0.681,0.0877 -1.03,-0.23827 -0.419,0 -0.376,0.52838 -0.376,1.10662 -0.043,-0.86835 -0.255,-1.64598 -0.903,-1.40072 -0.17,0.40875 -0.422,0.62009 -1.189,0.53237 -0.151,0.15651 0,0.42071 0.178,0.63406 0.124,0.10366 0.252,0.2303 0.376,0.35192 0,0.024 -0.197,-0.14056 -0.376,-0.35192 -0.341,-0.27118 -0.65,-0.38981 -0.903,-0.0527 0.082,0.56927 0,0.74173 -0.302,1.06375 0.167,0.49348 0.213,0.37884 1.24,0.42071 -0.856,0 -1.073,0.11864 -1.321,0.53237 0.426,0.36788 0.554,0.82649 0.511,1.32097 0.678,0.41275 2.17,-0.36787 2.771,-0.95309 0.132,0.29013 0.132,0.62311 0,0.99099 1.243,-0.28713 2.173,-0.90025 2.433,-1.27412 0.132,0.37387 -0.124,0.62011 -0.047,1.18937 0.69,-0.20238 1.121,-0.32102 1.585,-0.86834 -0.124,0.42071 -0.17,0.58521 -0.295,1.0797 0.938,-0.24526 1.19,-0.28814 1.752,-1.0797 -0.089,0.54732 -0.054,0.54732 0,0.95309 1.054,-0.49351 1.236,-0.45961 1.872,-1.27412 -0.171,0.69588 -0.124,0.74174 -0.082,1.23622 0.977,-0.49448 1.279,-0.74373 1.62,-1.53133 0.131,0.29511 0.077,0.57824 0.213,1.07572 0.554,-0.33297 0.895,-0.65499 1.325,-1.27909 0.124,0.28714 -0.213,0.66297 -0.213,1.02985 0.767,-0.1575 1.15,-0.36688 1.538,-0.89926 0.849,2.91313 4.773,2.91313 5.374,4.60794 v 1.61109 h -4.82 v -2.2272 h -4.99 v 2.26609 h -4.832 v -2.26609 h -5.161 v 2.26609 h -5.481 z m 3.307,-8.41233 v -23.10151 c 0,-3.54817 2.856,-6.92786 6.905,-6.10834 3.293,0.70384 4.785,2.27006 3.293,5.40052 2.05,1.23621 3.499,1.77556 6.44,2.26906 0.426,-0.7846 1.108,-1.81346 1.752,-2.59409 -0.385,0.0837 -0.589,0.0837 -1.019,0.16052 0.941,-0.86536 2.049,-1.15248 2.262,-2.01685 0.128,-0.52839 -0.457,-1.53133 -0.957,-1.83739 -0.418,0.0568 -0.848,0.0418 -1.259,0.0418 v 2.03978 h -1.283 v -1.96401 -0.003 -0.58621 c -0.329,0.21932 -0.596,0.49746 -0.755,0.87732 -0.981,-1.51936 -0.28,-2.38473 0.794,-2.84032 -0.039,-1.01792 0,-1.71478 -0.039,-2.6908 -0.473,0 -1.115,0.0837 -1.84,0.20735 0,-0.45661 -0.043,-0.98797 -0.043,-1.44258 0.856,0.12562 1.027,0.16749 1.883,0.12562 0,-0.57724 -0.213,-1.36285 -0.302,-1.93709 0.644,0.0807 1.232,0.0428 1.879,0 -0.089,0.6161 -0.294,1.23224 -0.294,1.93709 0.849,0.0418 1.15,-0.0418 1.879,-0.16449 0,0.56925 0.043,0.94909 0,1.35785 -0.519,-0.0837 -1.372,-0.0837 -1.879,-0.12961 0,0.6241 0.035,1.86031 0.035,2.39568 0.24,-0.0418 0.484,-0.0689 0.697,-0.0768 l 0.008,0.004 0.019,-0.0149 h 0.008 c 0.69,-1.48148 3.328,-1.89023 4.948,-1.51936 2.263,0.49349 2.049,3.09256 4.061,4.19919 -0.69,0.1645 -0.737,0.33298 -1.167,0.0807 0.217,1.1166 0.771,1.36484 1.073,2.2651 -0.515,-0.12264 -0.596,-0.12264 -0.98,-0.1645 0.511,0.70386 0.98,1.56922 1.155,2.22321 -0.554,-0.0379 -0.644,-0.11465 -1.066,-0.11465 0.376,0.658 0.849,1.68785 0.938,2.30098 2.898,-0.16151 4.314,-0.45561 6.023,-1.47848 -1.112,-3.00783 -1.325,-4.82627 2.728,-6.10039 3.03,-0.53637 7.218,0.1605 7.218,6.62878 v 21.79649 c 0.035,1.7726 0.248,2.59108 1.232,3.58306 -1.492,-0.33299 -2.646,-0.90722 -4.138,-3.62793 -0.895,-0.0848 -1.801,-0.61611 -3.115,-3.00484 -2.693,-0.83145 -2.906,-0.90324 -2.906,-9.35046 -0.26,0.74273 -0.554,0.74273 -1.402,1.06774 -0.984,-0.1605 -1.326,-0.65799 -1.675,-1.18637 -0.251,0.61711 -0.464,0.89924 -1.238,0.98001 -0.383,-0.20338 -0.588,-0.325 -1.061,-0.82349 0.81,1.32396 2.683,4.24503 3.974,6.18612 -0.876,-0.24626 -1.128,-0.28711 -1.988,-0.52839 1.492,2.66686 1.778,3.21418 3.704,6.2609 0.167,0.29111 0.255,0.20738 0.554,0.20738 1.151,0.0837 1.403,-0.58224 2.092,0.0408 0,0.0279 -0.015,0.0509 -0.035,0.0807 0.008,-0.0179 0.027,-0.0179 0.035,-0.034 0.647,-0.21136 1.449,0.12161 1.244,1.23622 -0.252,-0.35592 -0.457,-0.56327 -1.027,-0.47455 0,0.0349 -0.011,0.0797 -0.046,0.13758 -0.938,0.329 -0.806,-0.28713 -1.922,-0.038 0.767,0.94912 1.67,0.69588 1.832,1.68387 -0.019,0.11068 -0.062,0.20239 -0.127,0.25223 l 0.019,0.18046 c 0.484,0.48551 0.341,1.13254 -0.096,1.67189 -0.245,-1.26315 -0.656,-0.99097 -0.753,-1.2781 l -0.065,-0.0499 c -0.089,0.0499 -0.213,0.0648 -0.38,0.008 -1.372,-1.03385 -0.43,-1.31698 -1.07,-2.14347 -0.212,-0.0847 -0.255,-0.1266 -0.379,0.0419 -0.43,1.40472 0.632,1.56521 -0.477,2.5572 -0.143,0.0259 -0.251,0.0149 -0.341,0 v 0.003 c 0.179,0.49051 -0.721,0 -0.766,1.23623 -1.023,-0.70784 -0.772,-1.31998 -0.295,-1.48347 l -0.02,-0.0428 c -0.046,-0.0877 -0.205,-0.023 -0.286,-0.12662 0.093,-0.61612 1.027,-1.15645 1.492,-2.14346 0,-0.16847 0,-0.16847 -0.249,-0.24525 -1.29,0.40976 -0.597,0.86138 -2.045,1.02987 -0.109,-0.0538 -0.155,-0.10276 -0.179,-0.14954 -0.182,0.38779 -0.763,-0.0418 -0.805,0.93414 -0.676,-0.53139 -0.355,-1.68386 0.383,-1.64897 0.097,0 -0.171,-0.13857 0.035,-0.32999 0.349,-0.45064 0.984,-0.0808 2.014,-0.61613 0.214,-0.0837 0.124,-0.20636 0.124,-0.24924 -1.146,-1.59511 -3.109,-3.79142 -3.985,-5.48824 -0.089,0.90424 -0.301,1.7686 -0.72,2.0976 -0.941,-1.81347 -1.325,-2.42959 -2.604,-4.40457 -0.217,0.32899 -0.136,0.20638 -0.473,0.45063 -0.263,-0.0408 -0.511,-0.28612 -0.728,-0.36688 1.031,4.89904 1.45,5.97078 4.006,10.00447 -0.588,0.49351 -2.468,1.02986 -3.235,1.48546 0.294,0.61215 0.644,0.988 1.019,1.56523 -1.484,0.86437 -2.297,1.24022 -4.514,2.01686 -2.096,-0.69289 -2.821,-1.02589 -4.955,-2.01686 0.379,-0.61611 0.72,-1.23621 0.972,-1.81446 -1.484,-0.74272 -2.255,-1.06774 -3.96,-1.81047 3.797,-4.85619 4.173,-5.43841 5.587,-9.39534 -0.213,0.0877 -0.383,0.1635 -0.724,0.33199 -0.082,-0.16849 -0.383,-0.62011 -0.473,-0.78463 -1.112,1.98397 -1.36,2.02086 -2.774,3.58708 -0.356,-0.46659 -0.484,-0.62809 -0.5,-1.16346 -0.364,0.34894 -2.085,1.95105 -5.242,5.0825 0,0.0418 -0.09,0.16848 0.124,0.24924 1.019,0.53935 1.701,0.16449 2.049,0.57723 0.062,0.14556 0.054,0.22232 0.019,0.26818 -0.046,0 -0.088,0.008 -0.135,0.016 0.635,0.30107 1.1,1.21627 0.546,1.65693 -0.046,-0.9491 -0.643,-0.53636 -0.813,-0.90723 v -0.004 c -0.02,0.0499 -0.074,0.0837 -0.17,0.13061 -0.477,-0.0469 -2.353,-1.35587 -2.353,-0.74374 0.466,0.94611 1.41,1.47451 1.496,2.05972 -0.074,0.10368 -0.585,-0.003 -0.298,0.16449 0.298,0.16849 0.728,0.78461 -0.295,1.4426 -0.034,-1.04481 -0.697,-0.82946 -0.787,-1.05976 -0.027,-0.0608 -0.069,0.038 -0.116,-0.0189 -0.848,-0.1615 -0.251,-1.23223 -0.681,-2.5881 -0.125,-0.16749 -0.167,-0.12961 -0.384,-0.0448 -0.678,0.78859 0.294,1.06773 -1.108,2.0587 -0.206,0.0609 -0.314,0.0428 -0.43,-0.0199 -0.047,0.38384 -0.512,0 -0.759,1.30202 -0.466,-0.57425 -0.652,-1.18637 -0.055,-1.67987 0.136,-0.12662 -0.089,-0.0689 -0.163,-0.34495 0.175,-0.9451 1.07,-0.69586 1.837,-1.64198 -1.108,-0.20637 -0.942,0.28412 -1.872,-0.0459 l -0.008,0.005 c -0.635,-0.12362 -0.848,0.0408 -1.108,0.41175 -0.259,-1.07074 0.597,-1.40072 1.241,-1.19336 l 0.019,0.019 c -0.019,-0.0269 -0.023,-0.038 -0.023,-0.0689 0.685,-0.61213 0.937,0.0418 2.091,-0.034 0.338,0 0.385,0.034 0.597,-0.20736 0.853,-0.86535 4.363,-4.9758 5.223,-5.96279 -0.662,0.26718 -1.073,0.17945 -1.867,-0.023 0.813,-1.11459 2.046,-3.62894 3.119,-5.59891 0,-0.0469 -0.392,0.74273 -0.984,0.94113 -0.686,-0.1984 -0.892,-0.40876 -1.232,-1.02986 -0.473,0.74273 -0.736,0.70485 -1.457,1.19436 -0.725,-0.24924 -1.108,-0.45163 -1.539,-1.10563 -0.387,3.33283 -0.763,6.4254 -2.944,7.74237 -0.507,1.89422 -1.19,2.8812 -3.417,3.83031 -0.43,1.68487 -1.705,3.3767 -3.883,4.11844 0.43,-0.90624 0.647,-1.48446 0.86,-2.47246 z m 4.991,-35.05105 0.635,-0.41672 v -0.69686 l 0.725,-0.0838 0.213,-0.69686 0.818,0.28714 0.507,-0.57326 0.519,0.57326 0.767,-0.28714 0.209,0.69686 0.686,0.0459 0.047,0.69688 0.806,0.24524 -0.171,0.74574 0.601,0.45162 -0.554,0.49748 0.213,0.56626 -0.554,0.33299 0.213,0.65799 -0.767,-0.0379 -0.217,0.78161 -0.768,-0.36888 -0.728,0.57526 -0.554,-0.53637 -0.767,0.37185 -0.217,-0.70086 -0.767,0.038 0.089,-0.69588 -0.771,-0.1645 0.174,-0.70087 -0.69,-0.49747 0.609,-0.40975 z m 23.987,-0.62309 c 0,-1.55725 6.152,-2.22722 6.318,1.81446 -0.294,3.91206 -6.36,3.33683 -6.36,1.48447 1.924,1.02986 3.249,-0.37089 3.284,-1.48447 -0.035,-1.11062 -1.573,-2.43059 -3.242,-1.81446 z m 37.49,99.75262 c -1.543,0.17945 -4.445,0.40575 -6.022,-1.19835 -2.126,1.8364 -4.719,2.4914 -6.888,1.9022 l -0.109,0.034 v 0.004 c -1.457,1.22527 -3.247,0.63607 -1.41,-0.56228 -1.535,-0.28713 -3.631,-0.92218 -3.631,-2.56418 0.252,-0.55928 0.897,-0.63906 1.453,-0.0379 l 0.108,-0.0389 c 0.815,-0.54335 0.547,-0.24026 1.039,-1.03683 -2.856,-2.94401 4.487,-5.61885 2.731,-6.89396 -0.844,-0.63407 -1.533,0.22631 -2.041,0.90025 -0.806,-1.38977 0.341,-2.6868 2.557,-2.6868 -0.767,-1.63401 -2.127,-4.50126 -3.541,-6.14724 -1.237,-1.4466 -2.271,-4.32481 -1.665,-7.96869 1.401,-6.11235 0.166,-5.02866 -0.218,-6.81621 -0.512,-2.15442 0.133,-3.04969 2.007,-3.98385 -1.233,2.05475 3.545,3.3099 1.669,6.48721 5.545,0.92219 1.876,5.42745 3.453,7.81116 -4.05,-1.44657 -1.667,-4.47034 -4.096,-4.53915 -1.414,-0.0418 4.131,7.61778 4.146,8.16012 0.217,-0.33299 0.427,-0.42073 1.019,-0.4935 0.341,-0.33399 0.643,-0.47456 1.147,-0.47456 -0.163,1.77958 -0.163,2.04776 -0.035,3.67381 1.569,1.99391 2.933,3.8353 3.541,5.10641 0.981,2.01286 1.069,5.48027 -0.38,8.53496 1.581,-0.90026 2.422,-0.97703 3.584,-1.75365 0.217,0.51641 0.298,1.04878 0.175,1.48946 0.678,0.0688 1.065,0 2.084,0.81152 -0.852,0.19539 -1.747,0.4586 -2.13,1.04878 0.557,0 1.325,0.59719 1.453,1.23227 z m -23.446,0.17945 c 1.589,1.07871 0.047,1.67987 -1.398,0.56228 l 0.023,-0.019 -0.152,-0.0379 c -2.262,0.58522 -4.99,-0.0469 -7.218,-1.88325 -2.045,1.94007 -4.655,1.67588 -6.658,1.79553 0.163,-0.78462 0.852,-1.33992 1.789,-1.49744 -0.507,-0.88729 -1.107,-1.04083 -2.003,-1.22028 0.768,-0.59718 1.326,-0.56329 2.256,-0.90325 -0.128,-0.44065 -0.206,-1.04182 0,-1.55823 1.199,0.77663 2.094,0.8534 3.721,1.75365 -1.492,-3.05469 -1.414,-6.52211 -0.384,-8.53495 0.706,-1.43165 2.453,-3.61698 4.336,-5.90599 l -0.667,0.80355 c 0.167,-1.63003 0.167,-1.89422 -0.045,-3.67779 0.553,0 0.856,0.14057 1.243,0.47455 0.597,0.0729 0.814,0.16051 1.062,0.48154 3.498,-4.21016 6.703,-8.21294 4.313,-8.14815 -2.558,0.0689 -0.035,3.09257 -4.267,4.53915 1.62,-2.38373 -2.174,-6.88898 3.584,-7.81115 -1.964,-3.17732 2.988,-4.43248 1.701,-6.48723 1.968,0.93418 2.612,1.82943 2.093,3.98386 -0.419,1.78755 -1.697,0.70386 -0.248,6.8162 0.643,3.64388 -0.43,6.52211 -1.709,7.96869 -1.461,1.64598 -2.864,4.51324 -3.665,6.14725 2.34,0 3.494,1.29704 2.681,2.68678 -0.555,-0.67393 -1.232,-1.53431 -2.127,-0.90024 -1.837,1.2751 5.758,3.94995 2.809,6.89397 0.508,0.79657 0.232,0.49349 1.107,1.04082 l 0.09,0.0349 c 0.597,-0.60117 1.236,-0.56329 1.581,0.038 0,1.64198 -2.259,2.27704 -3.848,2.56417 z m -21.153,-10.53684 h -0.028 l 0.028,-7.7384 1.708,-2.18534 3.034,-1.31298 3.03,1.18238 1.757,2.31594 0.643,2.62199 c -1.216,2.27307 -2.454,4.33976 -3.694,6.23 -0.717,-0.2602 -1.484,-0.65001 -1.871,-1.07072 -1.062,1.52634 -3.294,1.20133 -4.607,-0.0428 z m -9.764,0.16947 h -0.012 c -1.798,0.90624 -3.847,0.78759 -4.991,-0.87034 -1.537,1.69284 -3.336,1.69284 -4.92,0.74374 h -0.035 v -7.86902 l 2.138,-2.59606 2.988,-0.78061 3.157,1.07969 1.675,2.42262 z m -6.684,6.96175 c 13.91,4.43547 27.729,9.13115 41.573,13.766 15.548,-4.60794 51.468,-13.69021 53.688,-26.25987 l 0.008,-0.0449 c 0.128,-0.73873 0.233,-2.37773 0.198,-3.13143 l -0.066,-86.42926 -106.94,0.0109 v 89.92859 c 0.012,0.19441 0.027,0.37485 0.035,0.56229 0.593,5.9279 6.153,9.22484 11.504,11.5976 z"
             style="fill:#ffffff;stroke:none;stroke-width:0.998479" /><path
             id="path26"
             d="m 317.234,453.59208 h 1.158 v 1.65 h 2.217 v -2.891 h -1.066 v -1.451 h 1.066 v -2.269 h -1.066 v 1.24 h -1.151 v -1.24 h -1.158 v 1.24 h -1.186 v -1.24 h -1.205 v 2.269 h 1.205 v 1.451 h -1.205 v 2.891 h 2.391 z"
             style="fill:#ffffff;stroke:none" /><path
             id="path28"
             style="fill:#ffffff;stroke:none;stroke-width:0.998479"
             d="M 295.94542 267.66053 L 295.94542 270.30428 L 293.68761 270.30428 L 293.68761 273.31366 L 295.94542 273.31366 L 295.94542 278.1246 C 294.96289 277.80342 293.511 277.43814 291.98761 277.46991 C 289.31211 277.52564 288.92199 279.03085 288.92199 279.03085 C 288.92199 279.03085 287.25021 278.08372 283.85011 279.42147 C 280.45004 280.75922 281.9548 284.38241 281.9548 284.38241 L 280.22667 283.8246 L 280.28136 286.89022 C 280.28136 286.89022 281.28468 287.22427 283.01261 288.89647 C 284.74054 290.56865 284.35167 292.68736 284.35167 294.08085 C 284.35167 295.47434 285.80011 296.03085 285.80011 296.03085 L 286.22824 298.45741 C 283.88325 298.85006 279.10974 300.3784 274.57199 300.1496 L 274.99386 302.67303 L 272.47355 303.30897 C 272.26355 303.36167 272.04374 303.41921 271.79074 303.47303 L 271.79074 301.05116 L 271.82824 301.03866 L 271.8173 300.66366 L 271.79074 299.76053 L 271.79074 295.60741 C 275.14673 295.66111 278.09368 295.96034 281.40167 296.35116 L 281.22667 289.91678 C 277.87268 290.41027 274.65386 290.66316 271.24386 290.89647 C 271.59686 287.79991 271.92543 284.89473 272.49542 281.84803 C 270.25143 281.98263 268.11298 282.00229 265.89699 281.86366 C 266.47799 284.91833 266.79142 287.71122 267.07042 290.83866 C 263.85443 290.64028 260.81686 290.43745 257.64386 290.02772 L 257.83761 296.18866 C 259.20561 296.01619 265.09118 295.87587 267.11417 295.82303 L 267.11417 304.54491 C 263.75018 305.67746 260.82574 308.0802 263.56574 314.44178 C 264.49574 312.23651 265.23468 310.8449 267.17667 310.20585 C 267.17667 320.31299 267.95467 331.40884 265.35167 341.11522 C 268.93867 339.87899 270.20662 339.83653 273.88761 341.00897 C 271.43461 332.50392 271.59667 323.35703 271.85167 314.59178 C 272.20767 314.62668 272.56149 314.67183 272.90949 314.71366 C 278.15948 315.40253 283.5913 317.39636 285.0673 323.28241 C 286.4623 328.74074 282.15761 331.67268 279.78761 335.98553 C 275.26262 344.9392 276.95117 352.33049 272.73917 356.70116 C 274.13417 356.83176 275.67355 356.60428 275.67355 356.60428 C 272.32955 361.10954 265.96704 361.11003 261.18605 359.69335 C 257.29205 358.33449 253.37392 353.65462 251.65792 348.31991 C 258.87592 325.34703 234.7686 310.7904 217.43761 315.82303 C 208.17662 318.51381 190.2163 324.33553 189.4923 359.16522 C 188.9923 364.29059 189.85349 367.32974 188.45949 372.53085 C 190.07549 372.05231 190.70899 371.78087 192.14699 371.07303 C 192.14699 385.49401 192.11211 404.85287 189.12511 411.29022 C 190.75211 410.89643 192.01649 410.10329 192.88449 409.3496 C 194.13549 469.09822 194.86636 512.92632 190.53136 523.33553 C 197.12136 521.21603 200.05637 520.3325 203.80636 515.79335 C 205.61936 515.54112 207.35443 515.29147 208.92043 514.87772 L 208.92043 441.53085 C 206.05643 430.72584 203.27423 419.89412 200.67824 409.02928 C 199.67824 404.82212 199.50149 402.01601 200.70949 397.80585 L 201.97043 393.46678 L 205.47668 396.42616 C 206.87167 397.60056 207.99043 398.74113 208.92043 399.95741 L 208.92043 354.46522 C 208.92043 353.56197 209.6603 352.81991 210.5673 352.81991 C 211.4663 352.81991 212.20167 353.56197 212.20167 354.46522 L 212.20167 406.44022 C 219.68767 427.72026 225.36068 449.60277 231.12667 471.42616 L 231.12667 345.16835 C 231.12667 344.25713 231.87055 343.52616 232.77355 343.52616 C 233.68055 343.52616 234.42355 344.25713 234.42355 345.16835 L 234.42355 483.75741 C 234.78755 485.13819 235.16368 486.5178 235.55167 487.91053 C 238.70567 483.66951 240.74361 479.10344 241.86261 472.3371 C 243.92861 475.17643 247.52555 477.48458 252.49855 479.66991 C 248.43755 486.62369 247.82223 488.69456 241.22824 492.10116 C 245.97223 494.12997 250.82443 494.48463 255.02042 491.8746 C 254.94742 492.13481 254.85836 492.37408 254.78136 492.61835 C 253.46336 494.9881 252.53342 497.12535 251.37042 499.09335 C 249.92143 501.58473 248.73942 502.55772 246.97042 504.64335 C 243.39243 505.79982 241.7123 504.0201 237.7673 504.90741 C 237.6973 504.94231 237.63105 504.96961 237.56105 505.00741 C 237.31005 504.30654 237.09542 503.66819 237.22042 503.61835 C 237.72042 503.44987 238.13118 503.21946 238.31417 502.74491 C 238.80617 502.78291 239.61961 502.29253 239.88761 501.90272 C 240.61161 501.99042 241.10305 501.63977 241.33605 501.10741 L 246.92824 499.47616 C 247.55924 499.78221 248.37668 500.04681 248.65167 499.51835 C 250.49567 498.76765 250.90649 497.71494 251.08449 496.96522 C 250.54649 496.4797 249.23617 495.55257 247.33917 496.25741 C 246.75818 495.89351 246.25474 496.83147 246.16574 497.22928 L 240.52199 498.89803 C 239.93299 498.59098 239.21574 498.50724 238.71574 498.89803 C 238.13074 498.63385 237.32124 498.76832 236.95324 499.20897 C 236.75524 499.10621 236.02449 498.7864 235.55949 498.89803 C 227.1125 469.27049 219.57066 436.15612 209.27667 406.96522 C 207.97068 403.2645 206.5223 401.10229 203.5423 398.58397 C 202.4613 402.33455 202.6473 404.58429 203.5423 408.37772 C 210.59029 437.78694 220.19668 471.47455 227.92667 501.01835 C 227.97267 501.01835 226.77555 501.41652 226.52355 501.94491 C 226.07855 501.76846 225.17055 502.21305 224.84855 502.65272 C 224.26755 502.60282 223.63224 502.95473 223.45324 503.4871 L 218.08761 505.11522 C 217.36261 504.85502 216.86317 504.72334 216.41417 505.20585 C 214.96918 505.33944 213.84061 506.88357 213.61261 507.62928 C 214.19761 508.1148 215.7783 508.96415 217.3173 508.29022 C 217.9453 508.4238 218.57893 507.98811 218.98292 507.27928 L 224.2673 505.73866 C 224.6703 506.22417 225.52736 505.99886 226.03136 505.73866 C 226.52336 506.04372 227.51561 505.86814 227.83761 505.51522 C 228.32961 505.914 228.87455 505.96043 229.49855 505.78397 C 229.67655 505.73917 229.77055 505.69647 229.94855 505.69647 C 230.03755 505.93076 230.30561 506.90505 230.53761 507.73553 C 226.92262 509.30474 226.58468 510.8362 227.35167 512.56991 C 227.38267 512.85304 227.45305 513.15221 227.56105 513.45428 C 225.63605 513.98267 224.10868 516.29798 225.15167 518.14335 C 225.18967 518.91199 225.56536 519.67394 226.40636 520.29803 L 226.45324 520.28085 L 226.5423 520.27772 C 225.2513 521.82798 224.36443 524.56457 228.37042 525.18866 C 227.79343 528.4766 229.83155 528.39306 231.32355 528.8746 C 232.19555 529.62928 232.81874 529.85494 234.19074 530.25272 C 236.27074 530.42918 237.41149 530.83056 239.25949 531.7996 C 240.80949 532.20834 242.12155 532.11612 243.74855 531.40428 C 244.61655 530.9148 244.93124 530.429 245.25324 529.67928 C 247.51824 528.61454 248.0188 528.21254 248.4298 525.67928 C 250.6738 522.84294 252.34761 515.50155 252.81261 514.06991 C 254.90561 507.62856 258.42968 502.19722 262.67667 496.70897 C 261.92568 501.26706 262.86749 506.62266 266.55949 509.39022 C 267.09449 499.47747 271.21968 494.47044 275.72667 487.66522 C 277.00467 488.06001 278.32318 488.46083 279.66417 488.88553 C 276.53522 508.97942 265.9317 517.17519 251.26261 529.01053 C 254.35061 531.75117 258.29568 534.33169 261.65167 537.39335 C 260.65568 538.90471 259.79161 539.65424 258.56261 541.11678 C 260.87961 542.52847 270.3953 548.37057 273.1423 550.05741 C 272.1513 551.94465 271.02242 553.14312 269.67042 555.26366 C 280.31341 562.01106 285.69356 564.60558 296.52355 570.8246 C 296.67855 570.7557 314.21144 562.47079 325.32042 556.07928 C 324.32843 554.70051 323.28199 553.06214 322.14699 551.33241 C 328.17198 547.77726 333.20937 544.48866 337.83136 541.48085 C 336.61536 540.10307 335.8813 539.29885 334.5673 537.70272 C 340.41829 533.57731 340.86562 533.21982 345.36261 529.75741 C 326.97863 512.73236 320.56135 507.42257 313.55636 487.94803 C 315.57836 487.25613 317.55105 486.5857 319.41105 485.93866 C 324.97104 493.6581 327.77643 496.81342 330.12042 507.36522 C 333.91342 503.66353 333.01211 500.03556 333.32511 494.92616 C 333.47611 495.07172 333.61861 495.22834 333.76261 495.36991 C 333.73561 495.35611 333.70161 495.32728 333.66261 495.30428 C 333.60461 495.24748 333.54942 495.20861 333.49542 495.15585 C 333.51442 495.17885 333.53111 495.20863 333.55011 495.23553 C 333.48411 495.18563 333.41374 495.13951 333.34074 495.05585 C 337.54373 502.02458 340.06674 505.81843 343.36574 511.37147 C 343.74174 514.47601 343.80405 516.12214 344.53605 517.79803 C 344.56805 517.79803 344.60261 517.79716 344.63761 517.80116 C 345.12961 519.04139 345.96924 520.26308 347.55324 522.03866 C 347.55324 524.22 349.45643 526.25997 351.09542 527.06053 C 351.22742 527.71853 351.36267 527.94518 351.67667 528.43866 C 352.94767 529.71378 356.35418 529.81702 358.21417 529.41522 C 359.62017 528.30163 360.47993 528.39316 361.88292 528.02928 C 363.25392 527.81491 363.25336 527.71816 364.88136 527.4121 C 366.14836 526.74214 367.14161 526.4359 367.91261 526.08397 C 368.95861 525.18771 368.78061 523.50475 367.91261 522.84178 C 369.89561 521.5248 372.61636 519.9807 369.98136 518.15428 C 369.85336 518.04761 369.71774 517.93978 369.56574 517.8371 C 370.76674 515.75843 370.53967 513.55673 369.00167 511.88085 C 369.00167 508.68161 367.42017 507.04389 365.01417 504.95428 C 364.97117 504.94228 364.93655 504.93793 364.89855 504.92303 C 369.40754 489.8012 374.13074 470.31239 378.81574 452.80585 C 380.80373 452.94441 381.11349 451.88304 381.43449 450.73553 C 382.91949 450.33277 383.23599 449.28056 382.19699 448.04335 C 384.09998 447.25176 384.22417 446.10031 383.68917 444.65272 C 389.51317 438.08078 393.61574 433.758 394.29074 431.55272 C 394.84474 429.21487 392.98473 424.45207 391.14074 417.66678 C 391.31874 416.91308 391.76786 415.23226 389.86886 414.75272 C 389.73386 414.58523 389.5913 414.43575 389.4673 414.30116 C 390.0563 413.97218 390.45167 413.35275 390.45167 412.64491 C 390.45167 411.58913 389.58686 410.73866 388.49386 410.73866 C 387.40886 410.73866 386.53292 411.58913 386.53292 412.64491 C 386.53292 412.93202 386.59855 413.2123 386.72355 413.46053 C 386.34755 413.56822 385.94542 413.75534 385.49542 413.9996 C 383.73643 413.60579 382.73924 415.06 382.32824 416.11678 C 377.82224 420.92312 373.25849 424.36339 372.35949 426.61053 C 372.08849 428.68519 372.22174 433.80272 373.66574 441.95585 C 371.81074 442.7554 371.63174 444.29659 372.71574 445.75116 C 371.05374 446.22968 370.95305 447.37804 371.91105 448.48866 C 371.58905 449.8515 371.95249 450.68519 372.85949 451.35116 C 368.62449 468.18676 364.19973 483.18321 357.69074 502.89803 C 356.47374 502.59196 351.0413 503.51069 347.5423 502.16678 C 344.3493 497.65456 342.51723 494.71894 340.57824 490.8996 C 345.36123 492.20759 347.25537 491.90588 353.05636 490.82616 C 346.58537 487.20622 344.43173 485.63283 340.14074 479.09178 C 345.58573 476.58843 349.14718 474.45098 351.63917 471.35741 C 353.05717 478.88644 355.14818 482.95712 359.91417 486.34178 C 360.31817 485.04374 360.71361 483.74977 361.11261 482.45272 L 361.11261 346.0996 C 361.11261 345.19636 361.85649 344.46053 362.75949 344.46053 C 363.66649 344.46053 364.39855 345.19636 364.39855 346.0996 L 364.39855 471.37303 C 366.24255 465.00048 367.99224 458.5809 369.62824 452.1246 C 369.06624 451.24031 368.81436 450.23644 368.85636 449.14178 C 368.08136 447.60746 368.22618 445.98582 369.16417 444.7496 C 368.94217 443.26413 369.37605 441.80936 370.46105 440.69178 C 369.99605 437.87836 369.62955 435.02727 369.42355 432.19491 C 369.29955 430.31565 369.1913 428.13442 369.4423 426.25116 L 369.47667 425.90272 L 369.60949 425.56991 C 370.38049 423.65975 372.42999 421.71559 373.92199 420.28397 C 375.91698 418.38177 377.92068 416.53413 379.82667 414.54022 C 380.55967 413.01287 381.78711 411.81127 383.32511 411.31678 L 383.32511 355.3996 C 383.32511 354.49935 384.0643 353.75741 384.9673 353.75741 C 385.8633 353.75741 386.60324 354.49935 386.60324 355.3996 L 386.60324 408.23553 C 387.18824 408.00125 387.83186 407.87616 388.49386 407.87616 C 391.20186 407.87616 393.39542 410.00795 393.39542 412.64491 C 393.39542 412.97887 393.36161 413.3074 393.28761 413.63241 C 393.73661 414.18772 394.05736 414.85268 394.18136 415.61835 C 394.30536 416.30725 394.27074 416.92844 394.16574 417.57147 C 394.90574 420.23933 395.74749 422.88002 396.45949 425.55585 C 396.99849 427.55373 397.64242 430.13225 397.17042 432.18397 L 397.15324 432.28397 L 397.11574 432.37616 C 396.50774 434.3661 394.53855 436.68871 393.19855 438.28085 C 391.14855 440.71541 388.99355 443.07286 386.87355 445.4496 C 386.95555 446.21825 386.86724 446.9524 386.60324 447.61835 L 386.60324 511.56678 C 388.89323 512.97149 391.23711 513.77147 393.22511 513.77147 C 397.24711 517.20499 399.63793 518.12639 405.05792 519.31678 C 398.50993 511.65116 401.12149 455.78269 400.90949 409.04335 C 401.40149 409.04335 404.20274 410.71678 404.69074 410.71678 C 401.35474 400.70433 402.1243 386.68388 402.3923 370.99178 C 403.4303 371.42844 405.5073 373.10495 406.5423 373.5496 C 405.7403 364.6777 405.95324 362.65637 405.95324 357.62772 C 405.95324 326.53561 389.53222 318.20514 376.70324 314.76366 C 353.77226 309.6044 337.84318 327.50863 343.33917 346.47772 C 342.03318 352.4216 338.69123 356.91965 333.05324 359.43397 C 328.44924 361.01913 321.94855 361.41635 319.24855 356.21522 C 320.45255 356.96492 321.32468 357.36426 322.85167 357.40116 C 321.46868 355.96652 320.68549 353.88282 320.03449 351.47616 L 320.02667 351.47616 C 318.96068 347.42252 318.2488 342.47107 315.6798 338.11835 C 318.2488 340.31664 319.1473 342.55431 320.0423 344.5871 C 321.3123 338.72996 319.50792 331.59986 316.80792 328.38866 C 319.05892 329.49529 319.10511 329.22301 320.72511 330.89491 C 321.09311 327.64581 320.58899 326.27937 319.59699 324.21366 C 319.50799 319.58977 319.01592 318.09789 316.80792 315.36522 C 319.10492 316.33727 320.72574 316.1995 322.79074 315.05897 C 319.73374 314.0022 317.66455 312.2417 315.49855 308.98866 C 313.14093 305.49161 312.18098 301.14768 308.60324 298.84335 L 309.10011 296.03085 C 309.10011 296.03085 310.54855 295.47434 310.54855 294.08085 C 310.54855 292.68736 310.15968 290.56865 311.88761 288.89647 C 313.61554 287.22427 314.61886 286.89022 314.61886 286.89022 L 314.67355 283.8246 L 312.94542 284.38241 C 312.94542 284.38241 314.45022 280.75922 311.05011 279.42147 C 307.65005 278.08372 305.97824 279.03085 305.97824 279.03085 C 305.97824 279.03085 305.58811 277.52564 302.91261 277.46991 C 301.38923 277.43814 299.93735 277.80342 298.9548 278.1246 L 298.9548 273.31366 L 301.21261 273.31366 L 301.21261 270.30428 L 298.9548 270.30428 L 298.9548 267.66053 L 295.94542 267.66053 z M 293.23449 281.87616 C 293.99927 281.88691 294.81915 281.97678 295.67511 282.14647 L 296.11261 285.16678 C 294.88251 286.09919 293.55488 288.07759 293.65949 291.18241 L 295.33136 291.62772 C 297.44946 292.96547 293.93794 296.92276 292.09855 292.79803 L 291.20636 292.6871 C 291.20636 292.6871 291.37446 295.306 289.25636 294.46991 C 287.13825 293.63381 289.59074 291.2371 289.59074 291.2371 C 289.59074 291.2371 288.05782 288.97274 287.69542 287.33553 C 286.89961 283.74019 289.39521 281.82216 293.23449 281.87616 z M 301.66574 281.87616 C 305.50498 281.82217 308.00065 283.74019 307.2048 287.33553 C 306.8424 288.97274 305.30949 291.2371 305.30949 291.2371 C 305.30949 291.2371 307.76197 293.63381 305.64386 294.46991 C 303.52576 295.306 303.69386 292.6871 303.69386 292.6871 L 302.80167 292.79803 C 300.96232 296.92276 297.45076 292.96547 299.56886 291.62772 L 301.24074 291.18241 C 301.34535 288.07759 300.01771 286.09919 298.78761 285.16678 L 299.22511 282.14647 C 300.08107 281.97678 300.90096 281.88691 301.66574 281.87616 z M 292.23136 301.59335 C 292.24336 301.63925 292.25867 301.69174 292.27667 301.74647 C 292.74967 303.72047 291.50561 305.6979 289.48761 306.17147 C 287.45361 306.63905 285.42736 305.42869 284.93136 303.45272 C 284.92336 303.39992 284.91142 303.35024 284.89542 303.29647 L 292.23136 301.59335 z M 271.85167 309.77616 C 276.36267 309.73026 281.37055 311.38826 284.04855 311.9246 L 285.49699 315.36522 C 281.80099 313.9635 275.97867 312.12667 271.85167 312.1496 L 271.85167 309.77616 z M 353.97511 366.93866 L 353.97511 458.95585 C 354.49411 472.27821 333.78208 475.70438 297.40011 489.02772 C 262.76615 477.36132 242.1873 474.51496 241.5673 461.72303 L 241.5673 366.98397 L 353.97511 366.93866 z M 340.27667 490.82616 L 340.3298 490.83085 C 340.3878 491.00332 340.40761 491.09854 340.38761 491.12147 L 340.27667 490.82616 z M 340.40792 490.86053 C 340.43492 490.86453 340.47449 490.87285 340.50949 490.88085 C 340.56749 491.07526 340.64136 491.25523 340.70636 491.43866 C 340.60636 491.24028 340.50892 491.05595 340.40792 490.86053 z " /><path
             id="path30"
             d="m 218.046,502.28533 3.611,-1.13552 c 0.507,-0.5202 1.162,-0.90181 1.86,-1.11899 0.294,-0.21097 0.616,-0.39402 0.949,-0.54397 -3.991,-15.78259 -8.168,-31.52898 -12.263,-47.29398 v 52.47521 c 0.798,-0.89043 1.805,-1.59677 2.898,-1.94219 0.895,-0.56776 1.895,-0.6598 2.945,-0.44056 z"
             style="fill:#ffffff;stroke:none;stroke-width:1.01695" /><path
             id="path32"
             d="m 381.179,455.55424 c -1.318,5.03032 -2.596,10.06471 -3.883,15.10215 -2.274,9.00186 -4.537,18.04633 -6.994,27.01675 2.988,3.19263 6.123,6.06276 8.521,6.66214 1.174,2.2312 2.747,4.21696 4.502,5.8569 V 453.8139 c -0.539,0.80526 -1.247,1.40565 -2.146,1.74034 z"
             style="fill:#ffffff;stroke:none;stroke-width:1.00707" /><path
             id="path34"
             d="m 334.309,453.59208 h 1.155 v 1.65 h 2.216 v -2.891 h -1.066 v -1.451 h 1.066 v -2.269 h -1.066 v 1.24 h -1.15 v -1.24 h -1.155 v 1.24 h -1.19 v -1.24 h -1.197 v 2.269 h 1.197 v 1.451 h -1.197 v 2.891 h 2.387 z"
             style="fill:#ffffff;stroke:none" /><path
             id="path36"
             d="m 328.846,456.88908 h -1.193 v 2.277 h 1.193 v 1.447 h -1.193 v 2.894 h 2.379 v -1.655 h 1.162 v 1.655 h 2.221 v -2.894 h -1.074 v -1.447 h 1.074 v -2.277 h -1.074 v 1.244 h -1.147 v -1.244 h -1.162 v 1.244 h -1.186 z"
             style="fill:#ffffff;stroke:none" /><path
             id="path38"
             d="m 320.31,456.88908 h -1.197 v 2.277 h 1.197 v 1.447 h -1.197 v 2.894 h 2.391 v -1.655 h 1.15 v 1.655 h 2.229 v -2.894 h -1.074 v -1.447 h 1.074 v -2.277 h -1.074 v 1.244 h -1.155 v -1.244 h -1.15 v 1.244 h -1.194 z"
             style="fill:#ffffff;stroke:none" /><path
             id="path40"
             d="m 325.777,453.59208 h 1.147 v 1.65 h 2.212 v -2.891 h -1.054 v -1.451 h 1.054 v -2.269 h -1.054 v 1.24 h -1.158 v -1.24 h -1.147 v 1.24 h -1.197 v -1.24 h -1.198 v 2.269 h 1.198 v 1.451 h -1.198 v 2.891 h 2.395 z"
             style="fill:#ffffff;stroke:none" /><path
             id="path42"
             d="m 337.386,456.88908 h -1.202 v 2.277 h 1.202 v 1.447 h -1.202 v 2.894 h 2.399 v -1.655 h 1.143 v 1.655 h 2.218 v -2.894 h -1.06 v -1.447 h 1.06 v -2.277 h -1.06 v 1.244 h -1.158 v -1.244 h -1.143 v 1.244 h -1.197 z"
             style="fill:#ffffff;stroke:none" /><path
             id="path44"
             d="m 342.839,453.59208 h 1.155 v 1.65 h 2.22 v -2.891 h -1.07 v -1.451 h 1.07 v -2.269 h -1.07 v 1.24 h -1.15 v -1.24 h -1.155 v 1.24 h -1.189 v -1.24 h -1.195 v 2.269 h 1.195 v 1.451 h -1.195 v 2.891 h 2.384 z"
             style="fill:#ffffff;stroke:none" /><path
             id="path46"
             d="m 309.636,396.89438 c 1.449,0 2.092,-0.211 4.451,-0.952 -0.475,0.741 -0.263,1.651 0.167,2.188 0,0.91 0.21,1.486 0.806,2.192 -0.077,0.703 0.047,1.117 0.477,1.529 0.337,2.441 0.984,3.715 2.604,6.733 -1.197,0.457 -2.267,1.282 -2.267,2.848 0,2.196 2.356,3.064 4.057,3.064 0.856,1.316 1.67,1.732 2.778,1.732 1.155,0 2.003,-0.416 2.855,-1.732 1.706,0 4.092,-0.868 4.092,-3.064 0,-1.566 -1.108,-2.391 -2.297,-2.848 1.619,-3.018 2.297,-4.292 2.603,-6.733 0.52,-0.412 0.601,-0.826 0.554,-1.529 0.555,-0.706 0.767,-1.282 0.767,-2.192 0.388,-0.537 0.64,-1.447 0.128,-2.188 2.341,0.741 3.034,0.952 4.526,0.952 4.65,-0.046 5.669,-1.984 7.127,-4.135 -4.14,0.907 -5.159,-2.602 -8.754,-2.602 1.457,-0.081 2.859,-2.73 2.859,-6.492 0,-4.457 -4.007,-9.824 -8.656,-9.824 3.41,1.562 4.607,4.91 4.483,7.842 -0.135,3.805 -1.713,4.55 -3.205,5.54 -2.091,-1.155 -3.153,-0.783 -4.908,1.16 -0.338,-1.202 -1.198,-1.486 -2.174,-1.486 -0.938,0 -1.751,0.284 -2.135,1.486 -1.713,-1.943 -2.774,-2.315 -4.913,-1.16 -1.407,-0.99 -2.987,-1.735 -3.162,-5.54 -0.089,-2.932 1.113,-6.28 4.487,-7.842 -4.615,0 -8.586,5.367 -8.586,9.824 0,3.762 1.36,6.411 2.863,6.492 -3.595,0 -4.614,3.509 -8.748,2.602 1.41,2.151 2.522,4.089 7.121,4.135 z"
             style="fill:#ffffff;stroke:none" /><path
             id="path48"
             d="m 319.687,384.63238 2.987,-1.574 3.247,1.612 -0.431,-3.343 2.43,-2.477 -3.371,-0.622 -1.875,-3.428 -1.619,3.428 -3.666,0.622 2.763,2.35 z"
             style="fill:#ffffff;stroke:none" /><path
             id="path50"
             d="m 305.428,409.79338 c -3.193,0.952 -2.809,1.117 -2.898,1.819 0.167,0.5 0.77,0.619 1.449,1.114 0.554,0.46 0.632,1.117 1.449,1.117 0.934,-0.284 1.449,-0.245 1.488,-2.971 0,2.895 0.604,2.599 1.29,2.895 0.852,0 0.766,-0.373 1.623,-0.995 0.845,-0.495 1.147,-0.414 1.325,-1.117 -0.093,-0.576 0.426,-1.033 -2.739,-1.904 2.936,0.833 3.115,0.46 3.63,-0.081 0.38,-0.656 -0.554,-1.109 -0.728,-1.735 -0.163,-0.66 -0.089,-1.113 -0.554,-1.524 -0.721,-0.084 -1.023,-0.58 -2.987,1.604 2.092,-2.349 1.573,-2.395 1.07,-3.013 -0.772,-0.5 -1.411,-0.039 -2.128,-0.084 -1.073,0 -1.124,-0.043 -1.805,0.33 -0.214,0.372 -1.02,0.706 1.034,2.814 -2.178,-2.231 -2.143,-1.532 -2.863,-1.532 -0.644,0.25 -0.387,0.875 -0.679,1.57 -0.212,0.661 -0.817,0.871 -0.565,1.489 0.519,0.584 0.476,1.075 3.588,0.204 z"
             style="fill:#ffffff;stroke:none" /><path
             id="path52"
             d="m 343.316,407.20938 c -0.155,-3.182 -9.007,-3.401 -9.007,2.896 0.151,6.08 9.007,5.646 9.154,2.099 -2.338,1.516 -5.148,-0.219 -5.148,-2.099 0,-1.955 2.658,-3.836 5.001,-2.896 z"
             style="fill:#ffffff;stroke:none" /><path
             id="path54"
             d="m 132.199,333.036 c 2.138,-4.074 3.095,-7.534 3.879,-11.925 l -9.946,-5.121 c -1.869,-0.964 -2.737,-0.938 -3.968,0.686 l -2.887,3.878 -4.407,-2.273 9.161,-17.482 4.414,2.268 -0.992,3.16 c -0.597,2.046 -0.074,2.499 1.793,3.463 l 13.085,6.733 c -0.298,4.738 -0.759,12.501 -5.029,20.647 -8.234,15.71 -21.561,17.222 -38.7623,8.374 -15.703,-8.085 -24.4945,-21.733 -15.6023,-38.702 2.5639,-4.887 5.5436,-9.848 13.429,-15.288 l 11.5656,7.455 -2.794,5.337 -9.0431,-2.68 c -3.6613,2.819 -5.9165,4.949 -8.7136,10.285 -3.0297,5.778 -2.5965,9.294 -1.5156,12.673 1.2553,3.939 10.3101,10.577 15.9173,13.46 12.342,6.35 24.356,6.611 30.416,-4.948 z"
             style="fill:#ffffff;stroke:none" /><path
             id="path56"
             d="m 173.192,261.824 c 10.349,10.638 5.843,22.482 -1.739,29.731 -9.707,9.266 -19.707,8.729 -28.769,-0.585 l -22.342,-22.957 c -1.46,-1.501 -2.227,-1.813 -3.977,-0.603 l -3.743,2.53 -3.45,-3.547 15.161,-14.489 3.452,3.548 -2.688,3.612 c -1.283,1.689 -1,2.461 0.465,3.965 l 21.403,21.999 c 8.245,8.472 15.987,5.367 21.69,-0.081 2.426,-2.319 4.452,-5.528 4.63,-8.715 0.109,-2.657 -1.558,-6.046 -6.47,-11.098 L 145.88,243.62 c -1.465,-1.505 -2.232,-1.812 -3.98,-0.603 l -3.742,2.53 -3.449,-3.548 14.922,-14.253 3.448,3.542 -2.689,3.613 c -1.283,1.689 -1,2.461 0.465,3.966 l 22.337,22.957 z"
             style="fill:#ffffff;stroke:none" /><path
             id="path58"
             d="m 222.614,255.813 -5.54,2.653 -39.34,-38.091 c -2.193,-2.196 -4.049,-1.774 -6.056,-1.091 l -2.802,0.971 -2.161,-4.437 20.407,-9.767 2.127,4.361 -3.801,2.376 c -1.518,0.914 -1.984,1.501 -1.507,2.481 0.221,0.449 0.666,0.979 1.225,1.543 l 30.408,30.508 -6.661,-41.868 c -0.143,-0.675 -0.287,-1.351 -0.468,-1.727 -0.512,-1.053 -1.38,-1.098 -3.12,-0.453 l -4.243,1.478 -2.123,-4.362 18.889,-9.044 2.162,4.434 -2.662,1.646 c -1.786,1.133 -2.437,1.909 -2.065,4.976 l 7.331,53.413 z"
             style="fill:#ffffff;stroke:none" /><path
             id="path60"
             d="m 248.957,245.217 -0.763,-4.953 4.301,-1.413 c 2.03,-0.645 2.247,-1.439 1.93,-3.505 l -6.521,-42.175 c -0.32,-2.062 -0.804,-3.003 -2.93,-2.937 l -4.491,0.176 -0.712,-4.622 42.82,-6.495 1.693,14.269 -5.329,0.81 -1.395,-5.701 c -0.484,-2.038 -1.535,-2.219 -3.534,-1.915 l -19.327,2.933 2.996,19.399 19.493,-2.961 0.934,6.024 -19.493,2.96 3.394,21.955 19.409,-2.948 c 2.004,-0.303 2.949,-0.783 2.798,-2.872 l -0.457,-6.265 5.58,-0.848 2.758,14.534 -43.154,6.55 z"
             style="fill:#ffffff;stroke:none" /><path
             id="path62"
             d="m 319.582,207.759 7.431,1.018 c 3.089,0.421 5.77,0.706 8.466,-0.948 2.604,-1.582 3.929,-3.759 4.588,-8.473 1.034,-7.444 -3.793,-10.638 -11.31,-11.663 l -6.257,-0.856 -2.918,20.922 z m -3.356,24.071 c -0.286,2.066 0.016,2.952 2.07,3.486 l 5.331,1.401 -0.689,4.965 -21.954,-3.003 0.678,-4.88 4.529,-0.142 c 2.132,-0.041 2.57,-0.74 2.856,-2.81 l 5.858,-42.015 c 0.287,-2.068 0.059,-2.86 -1.984,-3.477 l -4.319,-1.348 0.677,-4.878 21.954,3.002 c 11.522,1.577 18.632,6.087 17.043,17.504 -1.636,11.744 -11.982,13.951 -17.345,13.979 1.696,0.652 3.472,3.171 4.711,5.869 l 7.201,15.483 c 1.709,3.605 3.894,4.999 5.983,5.287 0.918,0.127 2.475,-0.084 2.998,-0.18 l -1.049,4.492 c -0.737,0.406 -3.328,1.316 -6.835,0.836 -4.508,-0.618 -6.957,-4.406 -8.798,-8.285 l -8.729,-19.149 c -0.857,-1.804 -2.046,-3.651 -4.631,-4.004 l -3.006,-0.411 -2.55,18.278 z"
             style="fill:#ffffff;stroke:none" /><path
             id="path64"
             d="m 376.278,246.921 c -1.015,1.835 -1.081,2.653 0.611,3.943 l 3.55,2.783 -2.384,4.323 -18.486,-10.001 2.384,-4.323 4.286,1.459 c 2.007,0.707 2.669,0.207 3.675,-1.624 l 20.553,-37.292 c 1.01,-1.835 1.2,-2.872 -0.527,-4.093 l -3.604,-2.522 2.383,-4.323 12.425,6.723 3.852,55.539 18.451,-33.484 c 1.012,-1.831 1.271,-2.83 -0.453,-4.051 l -3.603,-2.518 2.383,-4.323 18.265,9.883 -2.379,4.318 -4.089,-1.639 c -1.971,-0.779 -2.754,-0.061 -3.762,1.774 l -24.836,45.058 -6.505,-3.52 -3.778,-55.501 -18.412,33.411 z"
             style="fill:#ffffff;stroke:none" /><path
             id="path66"
             d="m 458.424,297.366 c -10.776,10.216 -22.717,5.705 -30.002,-1.839 -9.322,-9.647 -8.741,-19.56 0.698,-28.505 l 23.255,-22.051 c 1.523,-1.444 1.836,-2.204 0.624,-3.943 l -2.538,-3.716 3.592,-3.405 14.565,15.08 -3.596,3.405 -3.635,-2.68 c -1.696,-1.274 -2.479,-0.998 -4.002,0.445 l -22.283,21.127 c -8.582,8.142 -5.475,15.828 0,21.494 2.329,2.415 5.564,4.435 8.776,4.623 2.682,0.118 6.114,-1.521 11.229,-6.37 L 476.9,270.366 c 1.523,-1.444 1.84,-2.204 0.628,-3.939 l -2.54,-3.72 3.589,-3.405 14.332,14.838 -3.591,3.405 -3.638,-2.676 c -1.698,-1.274 -2.48,-0.998 -4.003,0.445 l -23.253,22.052 z"
             style="fill:#ffffff;stroke:none" /><path
             id="path68"
             d="m 452.147,322.427 4.432,-2.226 2.697,3.608 c 1.252,1.709 2.08,1.67 3.96,0.726 l 38.175,-19.176 c 1.875,-0.944 2.402,-1.582 1.752,-3.593 l -1.346,-4.285 4.433,-2.23 9.757,19.065 -4.437,2.226 -2.921,-4.053 c -1.255,-1.713 -2.085,-1.671 -3.965,-0.726 l -40.653,20.42 7.582,14.819 c 0.915,1.788 1.67,2.53 3.627,1.735 l 5.864,-2.384 2.55,4.986 -13.068,7.126 -18.439,-36.038 z"
             style="fill:#ffffff;stroke:none" /><path
             id="path70"
             d="m 104.181,503.443 3.336,6.896 c 1.383,2.867 2.662,5.308 5.628,6.668 2.848,1.312 5.488,1.205 9.944,-0.91 7.04,-3.34 7.063,-9.26 3.692,-16.236 l -2.809,-5.808 -19.791,9.39 z m -22.7592,10.799 c -1.9529,0.929 -2.5496,1.69 -1.8481,3.736 l 1.8101,5.336 -4.6928,2.226 -9.8534,-20.384 4.6153,-2.189 2.6891,3.774 c 1.2515,1.789 2.1036,1.766 4.0605,0.837 L 117.932,488.72 c 1.957,-0.928 2.511,-1.57 1.887,-3.658 l -1.282,-4.442 4.614,-2.189 9.853,20.382 c 5.169,10.696 5.297,19.307 -5.501,24.428 -11.103,5.271 -18.885,-2.277 -21.95,-6.826 0.391,1.813 -0.783,4.753 -2.418,7.34 l -9.3302,14.912 c -2.1545,3.497 -2.1234,6.149 -1.1854,8.088 0.4103,0.853 1.4758,2.058 1.8591,2.449 l -4.4904,1.655 c -0.7675,-0.395 -3.0259,-2.089 -4.5993,-5.34 -2.0251,-4.189 -0.1318,-8.419 2.1853,-12.185 l 11.6393,-18.293 c 1.0776,-1.751 2.0036,-3.809 0.8456,-6.211 l -1.3526,-2.792 -17.2846,8.204 z"
             style="fill:#ffffff;stroke:none" /><path
             id="path72"
             d="m 151.851,546.533 c -4.599,0.321 -13.096,6.13 -18.594,11.62 -10.992,10.984 -12.659,22.659 -3.421,31.73 4.006,3.936 8.001,6.043 12.596,5.72 4.599,-0.323 13.1,-6.131 18.595,-11.62 10.992,-10.984 12.658,-22.659 3.421,-31.733 -4.003,-3.932 -7.998,-6.039 -12.597,-5.717 z m -28.749,45.688 c -13.058,-12.826 -8.577,-27.181 4.548,-40.302 11.601,-11.594 28.444,-16.831 43.535,-2.004 13.054,12.822 8.579,27.184 -4.552,40.303 -11.601,11.59 -28.444,16.828 -43.531,2.003 z"
             style="fill:#ffffff;stroke:none" /><path
             id="path74"
             d="m 172.65,632.571 1.891,-4.711 4.557,0.96 c 2.146,0.476 2.561,-0.1 3.521,-2.035 l 19.467,-40.415 c 0.604,-1.516 0.217,-2.407 -1.461,-3.348 l -3.994,-2.127 1.887,-4.71 16.118,6.342 -2.797,53.076 33.023,-41.186 17.087,6.727 -1.891,4.714 -4.703,-1.297 c -1.949,-0.495 -2.821,-0.188 -3.523,1.57 l -13.356,42.633 c -0.642,2.061 -0.736,2.764 1.151,3.873 l 4.468,2.591 -1.887,4.715 -20.637,-8.12 1.891,-4.714 4.545,1.236 c 1.868,0.457 2.752,-0.119 3.359,-1.635 l 13.473,-42.222 -34.953,42.737 -5.723,-2.255 2.472,-55.513 -18.324,40.123 c -0.592,1.708 -0.43,2.699 1.33,3.67 l 4.08,2.157 -1.887,4.711 -19.184,-7.547 z"
             style="fill:#ffffff;stroke:none" /><path
             id="path76"
             d="m 296.377,608.926 -0.922,3.878 -8.23,24.293 18.738,-0.139 -8.602,-24.17 -0.984,-3.862 z m 3.902,-17.492 9.973,9.591 -3.275,2.308 -9.961,-7.523 -9.729,7.646 -3.406,-2.269 9.888,-9.714 6.51,-0.039 z m -7.168,10.129 8.071,-0.061 18.958,52.107 c 1.062,3.001 2.018,3.513 4.192,3.923 l 3.387,0.576 0.038,5.072 -22.29,0.165 -0.035,-4.899 4.762,-0.81 c 1.561,-0.269 2.247,-0.96 2.239,-2.077 -0.004,-0.515 -0.093,-1.029 -0.36,-1.716 l -3.898,-10.884 -22.988,0.173 -3.565,10.68 c -0.252,0.688 -0.333,1.29 -0.329,1.809 0.008,1.285 0.794,1.969 2.36,2.214 l 4.688,0.738 0.035,4.898 -20.813,0.153 -0.043,-5.067 3.29,-0.626 c 2.17,-0.445 3.03,-0.967 4.049,-3.984 l 18.252,-52.384 z"
             style="fill:#ffffff;stroke:none" /><path
             id="path78"
             d="m 370.717,643.481 c 0.795,2 1.4,2.596 3.546,2.131 l 4.564,-0.944 1.868,4.722 -20.183,7.843 -1.872,-4.723 3.995,-2.38 c 1.895,-1.101 1.93,-1.95 1.139,-3.95 l -16.115,-40.72 c -0.794,-2.001 -1.495,-2.834 -3.61,-2.289 l -4.388,1.152 -1.868,-4.724 13.563,-5.271 46.783,33.697 -14.473,-36.56 c -0.79,-1.996 -1.414,-2.865 -3.529,-2.319 l -4.386,1.151 -1.868,-4.718 19.943,-7.751 1.868,4.718 -4.007,2.112 c -1.926,1.025 -1.868,2.111 -1.077,4.111 l 19.477,49.199 -7.106,2.761 -46.704,-33.726 14.44,36.478 z"
             style="fill:#ffffff;stroke:none" /><path
             id="path80"
             d="m 459.043,604.104 -16.986,13.352 -3.181,-3.969 3.119,-3.44 c 1.48,-1.601 1.267,-2.422 -0.082,-4.104 l -27.39,-34.196 c -1.344,-1.681 -2.103,-2.077 -4.017,-1.009 l -4.084,2.226 -3.181,-3.969 16.982,-13.357 3.181,3.97 -3.115,3.44 c -1.484,1.604 -1.267,2.422 0.078,4.104 l 27.389,34.196 c 1.349,1.681 2.105,2.073 4.019,1.005 l 4.087,-2.224 3.181,3.975 z"
             style="fill:#ffffff;stroke:none" /><path
             id="path82"
             d="m 481.662,583.011 -4.173,-3.075 2.115,-4.116 c 1.012,-1.931 0.593,-2.668 -1.146,-3.95 l -35.564,-26.189 c -1.739,-1.279 -2.782,-1.621 -4.285,-0.051 l -3.158,3.348 -3.898,-2.868 26.588,-35.449 11.663,9.229 -3.314,4.414 -5.18,-3.174 c -1.844,-1.144 -2.743,-0.523 -3.983,1.136 l -12.003,15.997 16.358,12.043 12.105,-16.131 5.078,3.739 -12.103,16.135 18.511,13.633 12.054,-16.067 c 1.244,-1.654 1.585,-2.687 -0.05,-4.107 l -4.914,-4.258 3.468,-4.618 12.631,8.656 -26.8,35.723 z"
             style="fill:#ffffff;stroke:none" /><path
             id="path84"
             d="m 529.645,500.791 -8.036,19.951 -4.75,-1.878 0.976,-4.518 c 0.481,-2.123 -0.112,-2.729 -2.127,-3.524 L 474.793,494.64 c -2.015,-0.798 -2.867,-0.764 -3.994,1.102 l -2.429,3.943 -4.751,-1.878 8.036,-19.951 4.752,1.878 -0.978,4.518 c -0.48,2.119 0.117,2.726 2.125,3.524 l 40.92,16.181 c 2.011,0.799 2.867,0.764 3.991,-1.101 l 2.426,-3.947 4.754,1.882 z"
             style="fill:#ffffff;stroke:none" /></g></g></g></g></svg>
